<?xml version="1.0" standalone="no"?>
<!DOCTYPE svg PUBLIC "-//W3C//DTD SVG 20010904//EN"
 "http://www.w3.org/TR/2001/REC-SVG-20010904/DTD/svg10.dtd">
<svg version="1.0" xmlns="http://www.w3.org/2000/svg"
 width="980.000000pt" height="900.000000pt" viewBox="0 0 980.000000 900.000000"
 preserveAspectRatio="xMidYMid meet">

<g transform="translate(0.000000,900.000000) scale(0.100000,-0.100000)"
fill="#ffca2c" stroke="none">
<path d="M3335 8970 c-347 -60 -645 -179 -890 -355 -413 -296 -693 -693 -856
-1215 l-44 -142 -125 -63 c-347 -174 -690 -258 -1234 -304 -72 -7 -125 -16
-132 -23 -21 -23 -45 -111 -51 -188 -11 -145 34 -264 139 -368 78 -77 146
-123 263 -177 282 -132 946 -289 1328 -315 185 -12 209 -28 386 -244 169 -206
204 -332 139 -494 -54 -132 -138 -229 -434 -498 -345 -313 -520 -526 -659
-804 -151 -302 -205 -547 -205 -937 0 -222 9 -298 56 -483 80 -313 248 -638
480 -930 99 -125 391 -411 524 -514 696 -538 1539 -832 2570 -897 207 -13 797
-7 1000 10 620 53 1062 135 1515 281 1121 363 1914 1044 2339 2010 155 352
268 762 316 1150 94 749 10 1817 -176 2238 -31 71 -58 100 -100 108 -71 13
-143 -16 -609 -251 -470 -236 -677 -326 -961 -419 -268 -87 -583 -161 -874
-205 -448 -68 -952 -70 -1267 -5 -226 46 -413 136 -493 235 -52 65 -62 102
-58 203 4 109 6 113 211 456 155 259 212 372 262 524 73 218 98 419 99 776 0
242 -1 261 -27 377 -153 680 -571 1144 -1224 1359 -260 86 -451 113 -838 119
-225 4 -275 2 -370 -15z m-520 -1199 c86 -39 149 -114 185 -222 32 -94 25
-231 -17 -320 -34 -74 -105 -149 -170 -180 -95 -46 -228 -3 -310 101 -127 161
-121 392 13 540 84 93 203 125 299 81z"/>
</g>
</svg>
